<svg enable-background="new 0 0 2193.2 784.1" viewBox="0 0 2193.2 784.1" xmlns="http://www.w3.org/2000/svg"><g clip-rule="evenodd" fill-rule="evenodd"><path d="m1163 87.9c-10.2 5.3-30.5 15.6-45.1 22.9l-26.5 13.4-13.5-6.8c-7.4-3.7-27.3-13.8-44.2-22.5-16.9-8.6-31.4-15.6-32.2-15.6-1.3 0-1.5 6.8-1.5 49 0 34.9.3 49 1.1 49 1.1 0 19.4-9.1 64.8-32.2l25.4-12.9 40.1 20.2c22 11.1 42.1 21.3 44.5 22.6s5 2.3 5.7 2.3c1.2 0 1.4-8.6 1.4-49.5 0-27.2-.3-49.5-.7-49.4-.5 0-9.1 4.3-19.3 9.5z"/><path d="m270.3 171.1c-12.2 4.4-20.8 15-25.6 32l-2.2 7.7-.5 165.5c-.6 146-.8 166.8-2.3 176.3-6.2 41.3-20.2 61.1-45.7 64.9-8.8 1.3-20.2-.2-27.8-3.7-11.1-5.1-21.4-19.8-26.6-38-1.4-5-4.4-18.1-6.6-29.3-5.1-26.1-6.4-31.1-10.6-40.2-6.4-13.8-13.7-19.1-27.4-19.8-11.3-.5-18.2 2-26.1 9.5-10.3 9.8-13.9 20.8-13.9 43 0 31.5 8 68 21 95.1 22.9 47.9 59.2 68.7 117 66.9 20.1-.6 32.7-3.1 47.4-9.1 16-6.7 27.7-14.7 40.5-28.2 24.4-25.3 38.5-63.5 42.1-113.4.6-9 1-75.5 1-174 0-152.5-.1-159.9-1.9-168.7-3.6-17.4-11.1-28.7-22.9-34.5-5.7-2.8-7.9-3.3-15.2-3.6-6.2-.2-9.9.3-13.7 1.6z"/><path d="m543.7 170.4c-8.2 1.9-15.1 6.2-22.7 13.8-10.1 10.2-15.7 21.4-24.9 50-13.1 40.6-120.3 386.6-122.8 396.1-3 11.8-4 26.4-2.4 34.3 2.8 13.3 13.2 27.7 24.2 33.3 7.6 3.9 19 4.5 27.1 1.5 14.3-5.4 18.9-15.7 40.8-89.6l11.8-40h82.3 82.3l10.1 33.5c22.4 74.4 28.4 87.7 42.6 95.1 6.7 3.4 18.5 3.8 26.4.8 8.5-3.1 18.2-13 23.1-23.2 6.7-14.2 6.9-27.2.5-51.8-1.6-6.3-27.2-87.5-56.9-180.4-29.7-93-57-178.7-60.7-190.5-10-32.3-11.1-35.5-17.6-48.8-5.2-10.8-7-13.4-13.7-20.1-7.9-8-13.2-11.2-22.5-13.7-5.7-1.5-21.1-1.7-27-.3zm43.3 215.9c16 55.8 29.3 102.3 29.6 103.2.5 1.7-2.8 1.8-59.5 1.8-36.8 0-60.1-.4-60.1-.9 0-1 56.1-200.4 58.2-207.1 1.1-3.4 1.1-3.5 1.9-1 .5 1.4 13.9 48.2 29.9 104z"/><path d="m1947 170.4c-35.4 4-66 17.9-88.1 39.9-18.5 18.4-29.7 39.9-36.1 69.4-2 8.9-2.3 13-2.2 34.6 0 21.5.3 25.7 2.2 34.7 8.4 38.7 28.8 67.3 62 87 19.3 11.4 39.8 19.8 76.7 31.3 41 12.8 55 18.7 66.6 28 12.6 10.1 20.4 22.4 23.5 37 2.5 11.6 1.5 31.1-2 41.5-5.8 17.1-19.6 33.1-35.5 41.4-12.9 6.7-24.6 9.3-42.1 9.4-17.7 0-26.1-1.6-38-7.4-6.9-3.4-10.2-6-17.6-13.3-7.5-7.6-9.9-10.8-14.2-19.3-5.4-10.5-11.8-26.4-16.7-41.3-5.8-18-14.7-31.4-24-36.3-3.2-1.8-5.7-2.2-13-2.2-8.1 0-9.5.3-14.3 3-10.3 5.7-18.7 18-21.3 31.3-1.5 7.8-.7 25.5 1.6 36.7 3.9 19.2 13.8 42.5 25.3 60 29.2 44.2 72.7 65.5 134.1 65.5 50 0 90-15.8 119.4-47 28.6-30.4 43.3-74.5 41.4-124.5-1.3-34.3-8.1-57.9-23.2-80.5-7.8-11.8-22.3-26-35.5-34.8-19.2-12.9-50.5-26.2-91-38.7-45.7-14.1-61.7-21.8-74.6-35.7-27.7-30-12.7-78.5 28.3-92.1 20.6-6.8 47.3-5.6 65 2.8 14.6 6.9 27.2 23.8 38.8 52 4.5 11 12.3 26 16 30.9 4.7 6.2 10.5 8.9 20.2 9.4 7.8.4 8.8.3 14.9-2.8 4.6-2.3 7.6-4.6 10.5-8.3 9-11.3 12.9-23 12.9-38.5.1-43.8-30.1-88.8-73.5-109.7-15.2-7.3-28.8-11.1-47.5-13.4-9.8-1.3-38-1.2-49 0z"/><path d="m862 178.7c-22.6 4-37 12.2-43.3 24.8-6.6 13.2-6.1-.9-6.5 191l-.3 173.8h54.1 54l.2-137.8.3-137.7 2.2 7c1.2 3.8 4.7 16.2 7.8 27.5s6 21.6 6.5 23 2.1 7 3.5 12.5c1.5 5.5 3.3 12 4 14.5 1.3 4.1 3.3 11.1 15.1 53.5 3.4 12.1 8.5 30.1 11.8 42 .8 2.7 2.4 8.1 3.5 12 1.1 3.8 4.1 14.4 6.6 23.5s6.1 21.9 8 28.5c1.8 6.6 5.2 18.7 7.5 27 2.3 8.2 4.5 16.1 5 17.5s1.8 6.1 3 10.5c2.3 8.6 4.1 14.9 9 31.5 1.7 5.8 4 13.6 5.1 17.5 8.4 28.9 19.4 44.2 38.2 53.5 11.7 5.7 20.1 7.3 36.7 6.7 19.5-.7 29.6-4.2 41.8-14.5 6.2-5.3 13.7-14.9 16.4-21.2 2.5-5.5 7.2-19.2 9.8-28 1-3.6 3.5-12.1 5.5-19s5.2-17.9 7-24.5c1.9-6.6 4.7-16.7 6.3-22.5 1.7-5.8 4.9-17.3 7.2-25.5 2.3-8.3 5.6-19.7 7.2-25.5s4.5-15.9 6.3-22.5 5-17.9 7-25c2.1-7.2 5-17.5 6.5-23 3.1-11 9.5-34.1 14.2-50.5 1.6-5.8 4.5-15.9 6.3-22.5s5-17.9 7-25c9.2-32.5 10.6-37.6 13.2-47.3 1.5-5.6 3.1-10.2 3.5-10.2.5 0 .8 61.6.8 137v137h54 54.1l-.3-173.8c-.4-191.8.1-177.8-6.5-191-6.6-13.1-22.7-21.8-46.9-25.2-12.5-1.8-83.6-.7-93.3 1.4-10.7 2.3-19.7 6.8-25.2 12.6-8.9 9.5-14 23.1-32.4 86-.7 2.5-3 10.1-5 17s-4.3 14.5-5 17-2.5 8.5-4 13.5c-3.4 11.4-8.3 27.6-10 33.5-.7 2.5-3 10.1-5 17s-4.3 14.5-5 17c-4.4 15.1-7 23.8-9.9 33.5-1.9 6-4.3 14.1-5.4 18-1.2 3.8-3.5 11.7-5.2 17.5s-4 13.4-5 17c-1.7 5.9-4.9 16.8-10 34-1.1 3.6-2.3 8-2.6 9.7-.7 3.7-1.9 3.6-2.8-.4-.7-2.9-2.2-8.1-7.6-26.3-1.7-5.8-4-13.4-5-17-1.1-3.6-4.2-14.2-7-23.5-2.8-9.4-6-19.9-7-23.5s-3.3-11.2-5-17-4-13.4-5-17-4.2-14.2-7-23.5c-2.8-9.4-6-19.9-7-23.5s-3.3-11.2-5-17-4-13.4-5-17-3.2-11-4.9-16.5c-1.6-5.5-3.4-11.6-3.9-13.5-2.6-9.1-16.6-55.4-18.8-62-6.5-19-12.4-30.3-18.7-35.6-4.7-4-14.3-8.2-22.8-10-10.2-2.3-85.5-3-96.9-1z"/><path d="m1487 178c-6 1-14.9 4.6-19.2 7.8-9.5 7-15.8 20.5-17.8 38.8-.8 6.3-1 75.4-.8 216.7.4 197.5.5 207.8 2.2 214.5 5.6 21.3 15.9 32 34.1 35.5 4.3.8 40.2 1 128 .8l122-.3 6.7-3.3c13.3-6.5 19.8-18.9 19.8-37.7s-6.5-31.2-19.8-37.7l-6.7-3.3-101.7-.3-101.8-.2v-73.5-73.4l91.3-.3 91.2-.3 5-2.3c10.7-4.9 17.5-15.1 19.6-29.4 1.3-8.7.1-18.8-3.1-26.2-2.7-6.4-10-13.9-16.3-16.7l-5.2-2.4-91.2-.3-91.3-.3v-63.4-63.5l98.8-.2 98.7-.3 6.7-3.3c11.1-5.5 16.9-14.3 19-29.1 2.7-19.7-4.5-36.2-19-43.3l-6.7-3.3-120-.1c-66-.1-121.1 0-122.5.3z"/><path d="m1082.8 227.8c-9.1 6.2-8.4 21 1.2 26 4.2 2.2 11.8 1.9 15.8-.5 3.5-2.2 7.1-8.7 7.2-13 0-4.4-4.2-11.3-8-13.2-5.1-2.6-11.8-2.3-16.2.7z"/><path d="m1083.5 295.2c-13 7.9-7.2 28.1 8 28.1 9 0 16.2-8.1 15.1-16.8-.7-5.1-3.6-9.6-7.6-11.7s-11.8-1.9-15.5.4z"/><path d="m1086.4 361.4c-6.7 1.9-11.3 10-10 17.3.4 2 2.1 5.2 3.7 7.1 5.7 6.5 14.9 7.1 21.4 1.4 8.9-7.9 6.2-21.4-5.2-25.3-5.2-1.8-5.5-1.8-9.9-.5z"/><path d="m812.3 623c.5 36.7.9 39.6 6.7 52.1 5.4 11.6 18.2 21.4 32.1 24.7 8.3 1.9 22.8 1.9 30.4 0 19.7-5 32.7-18.9 37-39.6 1.1-5.4 1.5-14.6 1.5-39v-31.9h-54.1-54.1z"/><path d="m1260 620.7c0 23.6.4 33.4 1.5 39.1 4.9 26 24.5 41.5 52 41.5 16.4 0 29.1-4.7 39.1-14.5 12.6-12.4 15.4-25.2 15.4-72.3v-25.2h-54-54z"/></g></svg>